<svg width="160" height="25" fill="none" id="svg145643753_6765" xmlns="http://www.w3.org/2000/svg"><path d="M17.945 4.721c1.532-.224 3.064.12 4.576.328l6.885 1.01a6.262 6.262 0 0 1-2.997 1.243c2.833.287 5.133 2.697 5.438 5.5.114-1.751 1.059-3.337 2.43-4.352.09.199.16.407.21.62.482 1.818-.78 3.846-2.617 4.237-5.391 1.162-10.787 2.295-16.179 3.45a7.533 7.533 0 0 1-4.17-.222c-2.76-1.003-5.512-2.038-8.273-3.041-1.082-.218-1.679-1.332-1.42-2.374 3.008 1.032 5.996 2.132 8.996 3.172.976.392 2.117-.48 2.081-1.507.013-.781-.658-1.377-1.37-1.555-2.979-.918-5.94-1.893-8.917-2.816-.394-.29-.835.435-.368.578 3.123 1.09 6.319 1.98 9.443 3.064.933.354.4 1.928-.57 1.582-3.087-1.043-6.148-2.169-9.226-3.234-.346-.133-.832-.257-.86-.7-.05-.764-.134-1.647.412-2.266.338-.425.866-.64 1.399-.692 5.032-.666 10.061-1.37 15.096-2.023" fill="#002B28"></path><path d="M31.265 14.161a17.83 17.83 0 0 0 1.455-.373c.898.552 1.623 1.43 1.798 2.49.386 1.776-.862 3.696-2.634 4.081-4.622 1-9.25 1.972-13.873 2.954-2.034.435-4.171 1.086-6.221.363a630.552 630.552 0 0 1-8.896-3.28c-.923-.302-1.238-1.345-1.076-2.221 3.008 1.034 5.995 2.12 9 3.166.77.3 1.702-.144 1.978-.915.346-.813-.177-1.818-1.016-2.049-3.051-.98-6.106-1.95-9.163-2.907-.356-.208-.517.192-.683.416.958.466 1.998.705 3.006 1.043 2.126.704 4.274 1.351 6.407 2.037.34.1.727.278.81.666.245.672-.566 1.372-1.2 1.02-3.12-1.092-6.23-2.206-9.348-3.306-.765-.18-.595-1.088-.589-1.672-.014-.78.533-1.47 1.232-1.767 2.183.699 4.305 1.592 6.473 2.344 1.61.546 3.178 1.358 4.913 1.403 1.273.071 2.51-.285 3.746-.538 4.626-.985 9.254-1.969 13.882-2.952" fill="#F5DA2A"></path><path d="M31.265 14.161a17.83 17.83 0 0 0 1.455-.373c.898.552 1.623 1.43 1.798 2.49.386 1.776-.862 3.696-2.634 4.081-4.622 1-9.25 1.972-13.873 2.954-2.034.435-4.171 1.086-6.221.363a630.552 630.552 0 0 1-8.896-3.28c-.923-.302-1.238-1.345-1.076-2.221 3.008 1.034 5.995 2.12 9 3.166.77.3 1.702-.144 1.978-.915.346-.813-.177-1.818-1.016-2.049-3.051-.98-6.106-1.95-9.163-2.907-.356-.208-.517.192-.683.416.958.466 1.998.705 3.006 1.043 2.126.704 4.274 1.351 6.407 2.037.34.1.727.278.81.666.245.672-.566 1.372-1.2 1.02-3.12-1.092-6.23-2.206-9.348-3.306-.765-.18-.595-1.088-.589-1.672-.014-.78.533-1.47 1.232-1.767 2.183.699 4.305 1.592 6.473 2.344 1.61.546 3.178 1.358 4.913 1.403 1.273.071 2.51-.285 3.746-.538 4.626-.985 9.254-1.969 13.882-2.952" stroke="#002B28" stroke-width=".5"></path><path d="M34.765 3.854c.212-.21.377-.46.485-.733.237.494.64.936 1.136 1.167a2.048 2.048 0 0 0-1.145 1.14 2.161 2.161 0 0 0-1.132-1.134c.242-.104.465-.253.656-.44Zm-1.809-2.785c.173-.17.31-.372.404-.593.2.397.524.75.921.949a1.78 1.78 0 0 0-.931.926 1.88 1.88 0 0 0-.919-.92 1.85 1.85 0 0 0 .526-.362Z" fill="#F5DA2A" stroke="#002B28" stroke-width=".3"></path><mask id="svg145643753_6765_a" fill="#fff"><path d="M31.706 3.879c.424 1.677 1.874 3.292 3.632 3.464-1.88.125-3.469 1.713-3.59 3.597-.2-1.833-1.704-3.409-3.556-3.597 1.707-.228 3.186-1.506 3.514-3.46"></path></mask><path d="M31.706 3.879c.424 1.677 1.874 3.292 3.632 3.464-1.88.125-3.469 1.713-3.59 3.597-.2-1.833-1.704-3.409-3.556-3.597 1.707-.228 3.186-1.506 3.514-3.46" fill="#F5DA2A"></path><path d="m35.338 7.343.033.499.016-.997-.049.498Zm-3.59 3.597-.498.054.996-.022-.499-.032Zm-3.556-3.597-.067-.496.016.993.05-.497Zm3.03-3.341c.46 1.82 2.042 3.64 4.068 3.838l.097-.995c-1.491-.146-2.808-1.554-3.196-3.089l-.97.246Zm4.083 2.842c-2.131.142-3.919 1.929-4.057 4.063l.998.065c.106-1.633 1.494-3.022 3.125-3.13l-.066-.998Zm-3.06 4.042c-.225-2.055-1.903-3.827-4.003-4.04l-.101.994c1.605.164 2.934 1.543 3.11 3.154l.993-.108Zm-3.987-3.048c1.917-.255 3.576-1.695 3.941-3.872l-.986-.166c-.29 1.73-1.59 2.847-3.088 3.047l.133.991Z" fill="#002B28" mask="url(#svg145643753_6765_a)"></path><path d="M40.985 3.588h3.792v13.344h4.176v3.456h-7.968v-16.8Zm8.79 16.8v-.6l3.336-16.2 6.384.024 3.336 16.176v.6h-3.96l-.6-3.816h-3.936l-.6 3.816h-3.96Zm5.064-7.128h2.928l-.96-6.072h-1.008l-.96 6.072Zm20.049 1.176c0 1.152-.176 2.128-.528 2.928-.336.8-.792 1.44-1.368 1.92a5.44 5.44 0 0 1-1.872 1.056 7.1 7.1 0 0 1-2.064.312 7.1 7.1 0 0 1-2.064-.312 5.696 5.696 0 0 1-1.896-1.056c-.56-.48-1.016-1.12-1.368-1.92-.336-.8-.504-1.776-.504-2.928V3.588h3.84v10.32c0 .56.064 1.064.192 1.512.128.432.336.776.624 1.032.304.24.696.36 1.176.36s.864-.12 1.152-.36c.288-.256.496-.6.624-1.032a4.93 4.93 0 0 0 .216-1.512V3.588h3.84v10.848Zm9.634-10.848h3.696v16.8h-3.936l-3.576-9.336h-.24l.168 9.336h-3.696v-16.8h3.936l3.576 9.528h.24l-.168-9.528Zm10.597 0c1.328 0 2.52.304 3.576.912 1.056.592 1.896 1.504 2.52 2.736.624 1.232.936 2.816.936 4.752 0 1.92-.312 3.504-.936 4.752-.624 1.232-1.464 2.152-2.52 2.76-1.056.592-2.248.888-3.576.888h-4.728v-16.8h4.728Zm-.048 13.2c.944 0 1.712-.416 2.304-1.248.592-.848.888-2.032.888-3.552 0-1.552-.304-2.736-.912-3.552-.592-.832-1.352-1.248-2.28-1.248h-.888v9.6h.888Zm8.681-13.2h3.792v16.8h-3.84l.048-16.8Zm6.24 0c.96 0 1.816.192 2.568.576.752.368 1.344.936 1.776 1.704.432.752.648 1.704.648 2.856 0 1.184-.24 2.168-.72 2.952-.48.784-1.104 1.376-1.872 1.776a5.205 5.205 0 0 1-2.4.576H105.6V3.588h4.392Zm-2.448 7.2h1.944c.336 0 .616-.08.84-.24.24-.16.416-.384.528-.672.128-.304.192-.64.192-1.008s-.064-.688-.192-.96a1.268 1.268 0 0 0-.528-.624c-.224-.16-.504-.24-.84-.24h-1.944v3.744Zm.792 1.2h3.648l3 7.8v.6h-3.96l-2.688-8.4Zm16.899-8.4v3.456h-4.896v3.552c.48-.176.976-.312 1.488-.408a10.12 10.12 0 0 1 1.512-.216c.496-.032.96-.024 1.392.024v3.336l-.24.144a4.202 4.202 0 0 0-1.176-.192 8.833 8.833 0 0 0-1.416.072 8.113 8.113 0 0 0-1.56.36v3.216h4.896v3.456h-8.688v-16.8h8.688Zm.712 16.8v-.6l3.336-16.2 6.384.024 3.336 16.176v.6h-3.96l-.6-3.816h-3.936l-.6 3.816h-3.96Zm5.064-7.128h2.928l-.96-6.072h-1.008l-.96 6.072Zm18.366 2.52c0 1.04-.216 1.928-.648 2.664a4.29 4.29 0 0 1-1.8 1.656c-.752.384-1.616.576-2.592.576a7.83 7.83 0 0 1-2.16-.288 8.067 8.067 0 0 1-1.704-.648c-.48-.256-.832-.472-1.056-.648v-3.72h.48c.512.48 1.136.904 1.872 1.272.736.352 1.424.528 2.064.528.32 0 .6-.048.84-.144.256-.112.456-.264.6-.456a1.09 1.09 0 0 0 .216-.672c0-.416-.136-.752-.408-1.008-.256-.256-.664-.544-1.224-.864l-1.68-.96a10.628 10.628 0 0 1-1.464-1.032c-.48-.4-.88-.904-1.2-1.512-.304-.608-.456-1.36-.456-2.256 0-1.072.224-1.976.672-2.712a4.309 4.309 0 0 1 1.776-1.656c.752-.384 1.584-.576 2.496-.576.688 0 1.32.072 1.896.216a6.406 6.406 0 0 1 1.56.552c.48.224.88.496 1.2.816v3.72h-.48a5.815 5.815 0 0 0-1.8-1.296c-.672-.336-1.336-.504-1.992-.504-.4 0-.744.104-1.032.312-.272.192-.408.48-.408.864 0 .4.184.752.552 1.056.368.304.872.648 1.512 1.032l1.728 1.056c.544.336 1.008.72 1.392 1.152.4.416.704.912.912 1.488.224.56.336 1.224.336 1.992Zm9.936-12.192v3.456h-4.896v3.552c.48-.176.976-.312 1.488-.408a10.12 10.12 0 0 1 1.512-.216c.496-.032.96-.024 1.392.024v3.336l-.24.144a4.202 4.202 0 0 0-1.176-.192 8.833 8.833 0 0 0-1.416.072 8.113 8.113 0 0 0-1.56.36v3.216h4.896v3.456h-8.688v-16.8h8.688Z" fill="#002B28"></path></svg>